# xmcd
#
# Track frame offsets:
#	150
#	13282
#	25916
#	41702
#	55063
#	67912
#	79811
#	90278
#	103821
#	118102
#	129590
#
# Disc length: 1867 seconds
#
# Revision: 2
# Processed by: cddbd v1.5.2PL0 Copyright (c) Steve Scherf et al.
# Submitted via: EasyCDDAExtractor 11.5.3.1
#
DISCID=8c07490b
DTITLE=Mr. President - Back in Nashville
DYEAR=1900
DGENRE=Country
TTITLE0=Truckdrivers Dream
TTITLE1=Any Woman Can Be Tempted
TTITLE2=Born To Sing Country
TTITLE3=Big Eddie
TTITLE4=Could I Talk You Into Loving Me Again
TTITLE5=One Fifth At A TIme
TTITLE6=Got A Big Rig Gig
TTITLE7=When Someone Mentioned Grace
TTITLE8=You're Getting Over Me
TTITLE9=Could It Be Love
TTITLE10=I Don't Care
EXTD=
EXTT0=
EXTT1=
EXTT2=
EXTT3=
EXTT4=
EXTT5=
EXTT6=
EXTT7=
EXTT8=
EXTT9=
EXTT10=
PLAYORDER=
